<svg width="32" height="32" viewBox="0 0 120 120" xmlns="http://www.w3.org/2000/svg" role="img" aria-label="Coefficient">
  <rect width="120" height="120" rx="24" fill="#1a1a1a"/>
  <g stroke="#b5b2d9" stroke-width="1" opacity="0.2">
    <line x1="45" y1="12" x2="28" y2="28"/><line x1="28" y1="28" x2="16" y2="48"/>
    <line x1="16" y1="48" x2="14" y2="72"/><line x1="14" y1="72" x2="24" y2="92"/>
    <line x1="24" y1="92" x2="42" y2="105"/><line x1="42" y1="105" x2="65" y2="108"/>
    <line x1="65" y1="108" x2="85" y2="100"/><line x1="45" y1="12" x2="65" y2="14"/>
    <line x1="65" y1="14" x2="85" y2="22"/><line x1="45" y1="12" x2="16" y2="48"/>
    <line x1="28" y1="28" x2="14" y2="72"/><line x1="24" y1="92" x2="65" y2="108"/>
  </g>
  <circle cx="45" cy="12" r="6" fill="#b5b2d9"/>
  <circle cx="65" cy="14" r="5" fill="#b5b2d9" opacity="0.7"/>
  <circle cx="85" cy="22" r="4.5" fill="#b5b2d9" opacity="0.5"/>
  <circle cx="28" cy="28" r="5.5" fill="#b5b2d9" opacity="0.85"/>
  <circle cx="16" cy="48" r="6" fill="#b5b2d9"/>
  <circle cx="14" cy="72" r="6" fill="#b5b2d9"/>
  <circle cx="24" cy="92" r="5.5" fill="#b5b2d9" opacity="0.85"/>
  <circle cx="42" cy="105" r="6" fill="#b5b2d9"/>
  <circle cx="65" cy="108" r="5" fill="#b5b2d9" opacity="0.7"/>
  <circle cx="85" cy="100" r="4.5" fill="#b5b2d9" opacity="0.5"/>
</svg>
